<svg id="f7c541b9-9127-4531-8ff9-e6145a1d4963" data-name="Capa 1" xmlns="http://www.w3.org/2000/svg" viewBox="0 0 778 778"><defs><style>.f5d01e8e-4874-4ddb-9b82-1dcb9ab6784a{fill:#00b596;}.fbfc805e-94ab-471f-a2c1-c6da0d9451db{fill:#442e2e;}</style></defs><title>Logo</title><path class="f5d01e8e-4874-4ddb-9b82-1dcb9ab6784a" d="M101.63,444s206.13-93.81,576.56,165.71C678.19,609.71,242.33,15,101.63,444Z" transform="translate(-7 -7)"/><path class="f5d01e8e-4874-4ddb-9b82-1dcb9ab6784a" d="M252.13,228.37s217.49-.11,438.24,374C690.37,602.35,545.58-90.76,252.13,228.37Z" transform="translate(-7 -7)"/><path class="f5d01e8e-4874-4ddb-9b82-1dcb9ab6784a" d="M182.16,647.62s134.56-126.94,489.41-24.18C671.57,623.44,177.63,278.9,182.16,647.62Z" transform="translate(-7 -7)"/><path class="fbfc805e-94ab-471f-a2c1-c6da0d9451db" d="M701.16,7H90.84A83.84,83.84,0,0,0,7,90.84V701.16A83.84,83.84,0,0,0,90.84,785H701.16A83.84,83.84,0,0,0,785,701.16V90.84A83.84,83.84,0,0,0,701.16,7ZM101.63,444C242.33,15,678.19,609.71,678.19,609.71,307.76,350.19,101.63,444,101.63,444ZM671.57,623.44c-354.85-102.76-489.41,24.18-489.41,24.18C177.63,278.9,671.57,623.44,671.57,623.44ZM252.13,228.37c293.45-319.13,438.24,374,438.24,374C469.62,228.26,252.13,228.37,252.13,228.37Z" transform="translate(-7 -7)"/></svg>